<?xml version="1.0" encoding="UTF-8" standalone="no"?>
<svg width="1024px" height="768px" viewBox="0 0 1024 768" version="1.1" xmlns="http://www.w3.org/2000/svg" xmlns:xlink="http://www.w3.org/1999/xlink" xmlns:sketch="http://www.bohemiancoding.com/sketch/ns">
    <!-- Generator: Sketch 3.4.4 (17249) - http://www.bohemiancoding.com/sketch -->
    <title>skills</title>
    <desc>Created with Sketch.</desc>
    <defs></defs>
    <g id="Page-2" stroke="none" stroke-width="1" fill="none" fill-rule="evenodd" sketch:type="MSPage">
        <g id="skills" sketch:type="MSArtboardGroup">
            <g id="Group" sketch:type="MSLayerGroup" transform="translate(108.000000, 12.000000)">
                <g id="Line-+-Line-+-Line" transform="translate(281.391304, 347.794521)" stroke="#000000" stroke-width="4" stroke-linecap="square" sketch:type="MSShapeGroup">
                    <path d="M0.586231884,40.130137 L25.207971,0.636986301" id="Line"></path>
                    <path d="M96.7282609,200.013699 L150.661594,200.013699" id="Line"></path>
                    <path d="M235.078986,45.2260274 L211.62971,5.73287671" id="Line"></path>
                </g>
                <g transform="translate(229.790557, 0.771878)" sketch:type="MSShapeGroup">
                    <polygon id="Polygon-1" fill="#EBE9E9" points="174.709443 0.502095085 349.355389 101.361382 349.355389 303.079956 174.709443 403.939243 0.0634969619 303.079956 0.0634969619 101.361382 "></polygon>
                    <path d="M169.918424,128.810283 C171.063652,125.393478 174.694671,123.57961 178.013417,124.75355 L178.013417,124.75355 C181.33893,125.929883 183.110056,129.642448 181.961171,133.070163 L131.510845,283.5894 C130.365616,287.006206 126.734598,288.820073 123.415851,287.646134 L123.415851,287.646134 C120.090338,286.469801 118.319212,282.757235 119.468097,279.329521 L169.918424,128.810283 L169.918424,128.810283 Z" id="Rectangle-1" fill="#473F3F"></path>
                    <path d="M226.247942,293.459316 L219.02215,287.133951 L226.838254,283.725617 L226.247942,293.459316 L226.247942,293.459316 Z" id="Triangle-1" fill="#9B9B9B"></path>
                    <path d="M118.984945,293.742235 L119.388271,283.998469 L126.81476,288.227446 L118.984945,293.742235 L118.984945,293.742235 Z" id="Triangle-1" fill="#9B9B9B"></path>
                    <path d="M167.416304,132.521083 C166.329296,129.084265 168.16656,125.390775 171.504744,124.276516 L171.504744,124.276516 C174.849734,123.159984 178.439108,125.029975 179.529587,128.477766 L227.415131,279.878601 C228.502138,283.315418 226.664875,287.008909 223.326691,288.123168 L223.326691,288.123168 C219.9817,289.239699 216.392327,287.369709 215.301848,283.921918 L167.416304,132.521083 L167.416304,132.521083 Z" id="Rectangle-1" fill="#473F3F"></path>
                    <ellipse id="Oval-1" fill="#473F3F" cx="175.770831" cy="130.256205" rx="13.7980473" ry="14.1748187"></ellipse>
                    <ellipse id="Oval-1" fill="#EBE9E9" cx="175.770831" cy="130.256205" rx="9.55249428" ry="9.81333602"></ellipse>
                    <path d="M138.622243,185.865109 C138.622243,185.865109 144.441252,191.477415 152.078241,195.135389 C158.147045,198.042232 165.55722,199.168909 170.725091,199.168909 C176.132898,199.168909 185.085243,198.198506 192.692926,195.135389 C201.515803,191.582992 208.673867,185.865109 208.673867,185.865109" id="Line" stroke="#473F3F" stroke-width="4" stroke-linecap="square"></path>
                    <rect id="Rectangle-3" fill="#473F3F" x="170.46389" y="94.2739726" width="10.6138825" height="26.1688961" rx="8"></rect>
                </g>
                <g id="&lt;/&gt;" transform="translate(1.160122, 338.591942)">
                    <polygon id="Polygon-1" fill="#EBE9E9" sketch:type="MSShapeGroup" points="201.67611 0.696937953 376.322056 101.556225 376.322056 303.274799 201.67611 404.134085 27.0301636 303.274799 27.0301636 101.556225 "></polygon>
                    <text sketch:type="MSTextLayer" font-family="Kaiti TC" font-size="119.570187" font-weight="bold" fill="#473F3F">
                        <tspan x="78.5550725" y="230.191781">&lt;/&gt;</tspan>
                    </text>
                </g>
                <g transform="translate(403.463295, 338.374617)" sketch:type="MSShapeGroup">
                    <polygon id="Polygon-1" fill="#EBE9E9" points="202.700473 0.914262691 377.346419 101.77355 377.346419 303.492123 202.700473 404.35141 28.0545267 303.492123 28.0545267 101.77355 "></polygon>
                    <path d="M193.862734,163.267669 C194.301186,162.250887 194.875196,160.953844 194.875196,160.953844 L194.875196,160.953844 L217.47937,160.953844 C217.491555,160.953844 221.727079,160.953843 221.727079,160.953844 C221.727079,160.953844 263.566966,273.815561 263.566966,273.815561 C263.950266,274.849499 263.37248,275.687671 262.259943,275.687671 L147.386556,275.687671 C146.281407,275.687671 145.739985,274.865627 146.179395,273.846623 L193.862734,163.267669 Z" id="Rectangle-4" fill="#D8D8D8"></path>
                    <path d="M166.869291,225.53062 C166.869292,225.53062 245.071961,225.53062 245.071961,225.53062 C246.17798,225.53062 246.17199,225.53062 246.045847,225.53062 C246.045847,225.53062 246.045847,225.53062 246.045847,225.53062 C246.045847,225.53062 247.734896,229.635182 247.734896,229.635182 C247.734892,229.635183 263.582339,273.796503 263.582339,273.796503 C263.957148,274.840966 263.37248,275.687671 262.259943,275.687671 L147.386556,275.687671 C146.281407,275.687671 145.740474,274.858949 146.175606,273.843071 C146.175606,273.843071 166.86929,225.530621 166.869291,225.53062 Z" id="Rectangle-4" fill="#4A4A4A"></path>
                    <rect id="Rectangle-5" fill="#D8D8D8" x="194.209367" y="127.39726" width="27.5960946" height="37.0726027"></rect>
                    <rect id="Rectangle-6" fill="#9B9B9B" x="189.963814" y="127.39726" width="36.0872006" height="6.54222401" rx="8"></rect>
                </g>
            </g>
        </g>
    </g>
</svg>