<?xml version="1.0" encoding="UTF-8" standalone="no"?>
<svg width="1440px" height="806px" viewBox="0 0 1440 806" version="1.1" xmlns="http://www.w3.org/2000/svg" xmlns:xlink="http://www.w3.org/1999/xlink" xmlns:sketch="http://www.bohemiancoding.com/sketch/ns">
    <!-- Generator: Sketch 3.4.4 (17249) - http://www.bohemiancoding.com/sketch -->
    <title>Scene</title>
    <desc>Created with Sketch.</desc>
    <defs>
        <linearGradient x1="50%" y1="0%" x2="50%" y2="100%" id="linearGradient-1">
            <stop stop-color="#EEEEEE" offset="0%"></stop>
            <stop stop-color="#D8D8D8" offset="100%"></stop>
        </linearGradient>
        <linearGradient x1="50%" y1="0%" x2="50%" y2="100%" id="linearGradient-2">
            <stop stop-color="#E8E8E8" offset="0%"></stop>
            <stop stop-color="#D8D8D8" offset="100%"></stop>
        </linearGradient>
        <linearGradient x1="50%" y1="50%" x2="50%" y2="76.0874228%" id="linearGradient-3">
            <stop stop-color="#D2CECE" offset="0%"></stop>
            <stop stop-color="#D8D8D8" offset="100%"></stop>
        </linearGradient>
        <ellipse id="path-4" cx="38.5147871" cy="32.1094635" rx="3.45325447" ry="3.33162629"></ellipse>
        <ellipse id="path-5" cx="357.940825" cy="32.1094635" rx="3.45325447" ry="3.33162629"></ellipse>
        <radialGradient cx="54.721117%" cy="0%" fx="54.721117%" fy="0%" r="100%" id="radialGradient-6">
            <stop stop-color="#CBCBCB" stop-opacity="0.568161232" offset="0%"></stop>
            <stop stop-color="#9B9B9B" stop-opacity="0.568161232" offset="100%"></stop>
        </radialGradient>
    </defs>
    <g id="Page-1" stroke="none" stroke-width="1" fill="none" fill-rule="evenodd" sketch:type="MSPage">
        <g id="Scene" sketch:type="MSArtboardGroup">
            <g id="Hexagon" sketch:type="MSLayerGroup" transform="translate(1088.000000, 8.000000)">
                <polygon id="Polygon-1" fill="#2C3E47" sketch:type="MSShapeGroup" points="115 0 214.592921 57.5 214.592921 172.5 115 230 15.4070786 172.5 15.4070786 57.5 "></polygon>
                <rect id="Rectangle-65" fill="#8B572A" sketch:type="MSShapeGroup" x="16" y="162" width="198" height="10"></rect>
            </g>
            <g sketch:type="MSLayerGroup" transform="translate(235.000000, 280.000000)">
                <g id="Mac" transform="translate(136.000000, 0.000000)">
                    <rect id="Rectangle-5" fill="url(#linearGradient-1)" sketch:type="MSShapeGroup" x="276.789345" y="516.024411" width="145.036688" height="10.1158458"></rect>
                    <rect id="Rectangle-1" fill="#272222" sketch:type="MSShapeGroup" x="0.528987894" y="0.11627409" width="685.471012" height="403.126781" rx="6"></rect>
                    <rect id="Rectangle-55" fill="#E8E8E8" sketch:type="MSShapeGroup" x="0.528987894" y="392.948287" width="685.471012" height="21.6555709"></rect>
                    <rect id="Rectangle-2" fill="#9B9B9B" sketch:type="MSShapeGroup" x="26.4283964" y="23.7199143" width="633.672195" height="349.82076"></rect>
                    <rect id="Rectangle-3" fill="url(#linearGradient-2)" sketch:type="MSShapeGroup" x="0.528987894" y="403.064133" width="685.471012" height="21.6555709" rx="6"></rect>
                    <path d="M310.838203,424.981799 L390.165741,424.981799 L409.739642,516.601522 L292.328991,516.601522 L310.838203,424.981799 Z" id="Rectangle-4" fill="url(#linearGradient-3)" sketch:type="MSShapeGroup"></path>
                    <ellipse id="Oval-1" fill="#9B9B9B" sketch:type="MSShapeGroup" cx="348.444376" cy="408.833995" rx="11.223077" ry="10.8277854"></ellipse>
                    <rect id="Rectangle-6" fill="#FFFFFF" sketch:type="MSShapeGroup" x="26.4283964" y="23.7199143" width="315.972784" height="349.82076"></rect>
                    <rect id="Rectangle-33" fill="#4A4A4A" sketch:type="MSShapeGroup" x="102.399995" y="308.649572" width="88.057989" height="6.66325258" rx="1"></rect>
                    <rect id="Rectangle-25" fill-opacity="0.783514493" fill="#8B572A" sketch:type="MSShapeGroup" x="88.5869769" y="199.061242" width="81.15148" height="6.66325258" rx="1"></rect>
                    <rect id="Rectangle-17" fill="#354659" sketch:type="MSShapeGroup" x="57.5076866" y="99.588758" width="148.489942" height="6.66325258" rx="1"></rect>
                    <rect id="Rectangle-16" fill="#354659" sketch:type="MSShapeGroup" x="157.652066" y="86.1009636" width="31.0792902" height="6.66325258" rx="1"></rect>
                    <rect id="Rectangle-15" fill="#F6A623" sketch:type="MSShapeGroup" x="95.4934858" y="86.1009636" width="55.2520715" height="6.66325258" rx="1"></rect>
                    <rect id="Rectangle-14" fill="#354659" sketch:type="MSShapeGroup" x="57.5076866" y="86.1009636" width="31.0792902" height="6.66325258" rx="1"></rect>
                    <rect id="Rectangle-12" fill="#F6A623" sketch:type="MSShapeGroup" x="41.9680415" y="57.4394004" width="31.0792902" height="6.66325258" rx="1"></rect>
                    <rect id="Rectangle-13" fill="#9B9B9B" sketch:type="MSShapeGroup" x="41.9680415" y="70.9271949" width="31.0792902" height="6.66325258" rx="1"></rect>
                    <rect id="Rectangle-11" fill="#D8D8D8" sketch:type="MSShapeGroup" x="26.4283964" y="49.0095289" width="8.63313617" height="324.833563"></rect>
                    <rect id="Rectangle-6" fill="#FFFFFF" sketch:type="MSShapeGroup" x="344.127808" y="23.7199143" width="315.972784" height="349.82076"></rect>
                    <rect id="Rectangle-54" fill="#4A4A4A" sketch:type="MSShapeGroup" x="373.480471" y="217.606959" width="126.043788" height="124.935986"></rect>
                    <path d="M517.653845,218.449946 L557.366271,218.449946" id="Line" stroke="#979797" stroke-linecap="square" sketch:type="MSShapeGroup"></path>
                    <rect id="Rectangle-8" fill="#D8D8D8" sketch:type="MSShapeGroup" x="26.4283964" y="23.7199143" width="315.972784" height="14.9923183"></rect>
                    <g id="Oval-2">
                        <use stroke="none" fill="#D0011B" fill-rule="evenodd" sketch:type="MSShapeGroup" xlink:href="#path-4"></use>
                        <use fill="none" xlink:href="#path-4"></use>
                    </g>
                    <ellipse id="Oval-3" fill-opacity="0.895663496" fill="#F6A623" sketch:type="MSShapeGroup" cx="52.3278049" cy="32.1094635" rx="3.45325447" ry="3.33162629"></ellipse>
                    <ellipse id="Oval-4" fill-opacity="0.720137002" fill="#417505" sketch:type="MSShapeGroup" cx="66.1408228" cy="32.1094635" rx="3.45325447" ry="3.33162629"></ellipse>
                    <rect id="Rectangle-9" fill="url(#linearGradient-1)" sketch:type="MSShapeGroup" x="344.127808" y="23.7199143" width="315.972784" height="14.9923183"></rect>
                    <g id="Oval-2">
                        <use stroke="none" fill="#D0011B" fill-rule="evenodd" sketch:type="MSShapeGroup" xlink:href="#path-5"></use>
                        <use fill="none" xlink:href="#path-5"></use>
                    </g>
                    <ellipse id="Oval-3" fill-opacity="0.895663496" fill="#F6A623" sketch:type="MSShapeGroup" cx="371.753843" cy="32.1094635" rx="3.45325447" ry="3.33162629"></ellipse>
                    <ellipse id="Oval-4" fill-opacity="0.720137002" fill="#417505" sketch:type="MSShapeGroup" cx="385.566861" cy="32.1094635" rx="3.45325447" ry="3.33162629"></ellipse>
                    <rect id="Rectangle-10" fill-opacity="0.871405118" fill="#4A4A4A" sketch:type="MSShapeGroup" x="26.4283964" y="38.8936831" width="315.972784" height="9.99487887"></rect>
                    <rect id="Rectangle-17" fill="#354659" sketch:type="MSShapeGroup" x="57.5076866" y="111.390578" width="170.936096" height="6.66325258" rx="1"></rect>
                    <rect id="Rectangle-13" fill="#9B9B9B" sketch:type="MSShapeGroup" x="41.9680415" y="140.052141" width="31.0792902" height="6.66325258" rx="1"></rect>
                    <rect id="Rectangle-13" fill="#9B9B9B" sketch:type="MSShapeGroup" x="41.9680415" y="156.911884" width="31.0792902" height="6.66325258" rx="1"></rect>
                    <rect id="Rectangle-14" fill="#354659" sketch:type="MSShapeGroup" x="57.5076866" y="170.399679" width="31.0792902" height="6.66325258" rx="1"></rect>
                    <rect id="Rectangle-14" fill="#354659" sketch:type="MSShapeGroup" x="57.5076866" y="253.01242" width="31.0792902" height="6.66325258" rx="1"></rect>
                    <rect id="Rectangle-14" fill="#C35A12" sketch:type="MSShapeGroup" x="73.0473317" y="185.573448" width="31.0792902" height="6.66325258" rx="1"></rect>
                    <rect id="Rectangle-14" fill="#C35A12" sketch:type="MSShapeGroup" x="73.0473317" y="239.524625" width="31.0792902" height="6.66325258" rx="1"></rect>
                    <rect id="Rectangle-25" fill="#D6C90B" sketch:type="MSShapeGroup" x="176.644966" y="199.061242" width="22.446154" height="6.66325258" rx="1"></rect>
                    <rect id="Rectangle-25" fill-opacity="0.783514493" fill="#8B572A" sketch:type="MSShapeGroup" x="205.997629" y="199.061242" width="41.4390536" height="6.66325258" rx="1"></rect>
                    <rect id="Rectangle-25" fill-opacity="0.783514493" fill="#8B572A" sketch:type="MSShapeGroup" x="88.5869769" y="212.549036" width="126.043788" height="6.66325258" rx="1"></rect>
                    <rect id="Rectangle-25" fill="#354659" sketch:type="MSShapeGroup" x="88.5869769" y="226.036831" width="200.288759" height="6.66325258" rx="1"></rect>
                    <rect id="Rectangle-14" fill="#354659" sketch:type="MSShapeGroup" x="57.5076866" y="268.186188" width="31.0792902" height="6.66325258" rx="1"></rect>
                    <rect id="Rectangle-14" fill="#C35A12" sketch:type="MSShapeGroup" x="71.3207045" y="281.673983" width="31.0792902" height="6.66325258" rx="1"></rect>
                    <rect id="Rectangle-14" fill="#F6A623" sketch:type="MSShapeGroup" x="85.1337224" y="295.161777" width="31.0792902" height="6.66325258" rx="1"></rect>
                    <rect id="Rectangle-33" fill="#354659" sketch:type="MSShapeGroup" x="197.364493" y="308.649572" width="55.2520715" height="6.66325258" rx="1"></rect>
                    <rect id="Rectangle-33" fill="#4A4A4A" sketch:type="MSShapeGroup" x="257.796446" y="308.649572" width="36.2591719" height="6.66325258" rx="1"></rect>
                    <rect id="Rectangle-33" fill-opacity="0.783514493" fill="#8B572A" sketch:type="MSShapeGroup" x="102.399995" y="322.137366" width="151.943197" height="6.66325258" rx="1"></rect>
                    <rect id="Rectangle-33" fill="#4A4A4A" sketch:type="MSShapeGroup" x="102.399995" y="335.625161" width="181.29586" height="6.66325258" rx="1"></rect>
                    <rect id="Rectangle-17" fill="#354659" sketch:type="MSShapeGroup" x="57.5076866" y="124.878373" width="117.410652" height="6.66325258" rx="1"></rect>
                    <rect id="Rectangle-17" fill="#354659" sketch:type="MSShapeGroup" x="181.824848" y="124.878373" width="55.2520715" height="6.66325258" rx="1"></rect>
                    <rect id="Rectangle-14" fill="#F6A623" sketch:type="MSShapeGroup" x="85.1337224" y="350.798929" width="31.0792902" height="6.66325258" rx="1"></rect>
                    <rect id="Rectangle-41" fill="url(#radialGradient-6)" sketch:type="MSShapeGroup" x="344.127808" y="38.8936831" width="315.972784" height="19.9897577"></rect>
                    <rect id="Rectangle-44" fill="#FFFFFF" sketch:type="MSShapeGroup" x="390.746743" y="42.2656317" width="208.921895" height="11.660692" rx="1"></rect>
                    <rect id="Rectangle-45" fill="#4A4A4A" sketch:type="MSShapeGroup" x="599.668638" y="42.2656317" width="13.8130179" height="11.660692"></rect>
                    <rect id="Rectangle-46" fill-opacity="0.761747056" fill="#FAF3F3" sketch:type="MSShapeGroup" x="344.127808" y="59.1253747" width="315.972784" height="114.941107"></rect>
                    <rect id="Rectangle-47" fill="#354659" sketch:type="MSShapeGroup" x="368.300589" y="67.5552463" width="62.1585804" height="4.99743943"></rect>
                    <rect id="Rectangle-42" fill="#4A4A4A" sketch:type="MSShapeGroup" x="354.487571" y="43.951606" width="8.63313617" height="8.32906572" rx="1"></rect>
                    <rect id="Rectangle-42" fill="#4A4A4A" sketch:type="MSShapeGroup" x="368.300589" y="43.951606" width="8.63313617" height="8.32906572" rx="1"></rect>
                    <rect id="Rectangle-47" fill="#354659" sketch:type="MSShapeGroup" x="496.071004" y="67.5552463" width="31.0792902" height="4.99743943"></rect>
                    <rect id="Rectangle-47" fill="#354659" sketch:type="MSShapeGroup" x="547.869821" y="67.5552463" width="31.0792902" height="4.99743943"></rect>
                    <rect id="Rectangle-47" fill="#354659" sketch:type="MSShapeGroup" x="599.668638" y="67.5552463" width="31.0792902" height="4.99743943"></rect>
                    <rect id="Rectangle-51" fill="#4A4A4A" sketch:type="MSShapeGroup" x="368.300589" y="92.8448608" width="108.777516" height="68.2983389"></rect>
                    <rect id="Rectangle-47" fill="#354659" sketch:type="MSShapeGroup" x="511.610649" y="111.390578" width="98.4177524" height="6.66325258"></rect>
                    <rect id="Rectangle-53" fill="#F6A623" sketch:type="MSShapeGroup" x="371.753843" y="188.945396" width="81.15148" height="9.99487887"></rect>
                    <path d="M517.653845,231.937741 L617.798224,231.937741" id="Line" stroke="#979797" stroke-linecap="square" sketch:type="MSShapeGroup"></path>
                    <path d="M517.653845,245.425535 L628.157988,245.425535" id="Line" stroke="#979797" stroke-linecap="square" sketch:type="MSShapeGroup"></path>
                    <path d="M517.653845,258.91333 L638.517751,258.91333" id="Line" stroke="#979797" stroke-linecap="square" sketch:type="MSShapeGroup"></path>
                    <path d="M517.653845,272.401124 L607.438461,272.401124" id="Line" stroke="#979797" stroke-linecap="square" sketch:type="MSShapeGroup"></path>
                </g>
                <g id="Coffee" transform="translate(0.000000, 480.000000)" sketch:type="MSShapeGroup">
                    <ellipse id="Oval-11" stroke="#FFFFFF" stroke-width="4" cx="94.360456" cy="14.6315556" rx="5.32179627" ry="5.59688191"></ellipse>
                    <path d="M44.9466381,44.9551115 C69.4395291,44.9551115 89.2949404,25.7439062 89.2949404,2.04568349 C89.2949404,1.47761176 89.2949401,0.732168305 89.2949401,0.564553352 C89.2949401,0.396938399 87.9518764,0.484921087 83.0965719,0.484921073 C75.2582405,0.484921051 55.5321851,0.48492106 44.9466378,0.48492106 C28.5476447,0.48492106 14.8167534,0.393316213 7.14317515,0.484921041 C4.65190497,0.514661062 1.70669004,0.122932686 0.598335856,0.484921041 C0.0217044138,0.673248807 0.598335856,-0.634321282 0.598335856,2.04568349 C0.598335856,25.7439062 20.4537471,44.9551115 44.9466381,44.9551115 Z" id="Oval-8" stroke="#FFFFFF" stroke-width="4" fill-opacity="0.1" fill="#9B9B9B"></path>
                    <path d="M14.3715217,31.2155796 C17.3242353,34.045176 21.2037905,36.9346634 25.1183916,38.8807948 C31.6117084,42.1089264 38.6584803,43.5245902 45.0923962,43.5245902 C54.4701167,43.5245902 66.4525906,39.6526241 73.9652467,32.8595665 C82.8487922,24.8269297 86.4816342,13.6604716 86.4816342,13.5993599 C86.4816342,13.4865672 81.0282803,13.59936 76.971108,13.59936 C70.4212694,13.5993599 53.9378533,13.5993599 45.092396,13.5993599 C31.3891278,13.5993599 19.9153693,13.5377165 13.5032012,13.5993599 C11.4214548,13.6193728 4.70264663,13.3557679 3.77648765,13.5993599 C3.53743501,13.6622339 6.64186344,23.8082195 14.3715217,31.2155796 Z" id="Oval-8" stroke="#8B572A" stroke-width="2" fill="#8B572A"></path>
                </g>
                <g id="Pen" transform="translate(136.000000, 512.000000)" stroke="#979797" sketch:type="MSShapeGroup">
                    <path d="M3.30251352,10.4122615 C3.30251352,10.4122615 0.802360659,9.32847971 0.802360659,7.39635974 C0.802360659,6.79116666 1.18617269,6.12261768 1.63005416,5.66346135 C2.07393562,5.20430502 3.12981043,4.34220367 3.30251352,4.27138003 C3.31128962,4.26778104 4.72972791,3.35657508 4.72972791,3.35657508 C7.0566138,1.86313496 11.1907503,0.652462527 13.9340333,0.652462527 L189.654881,0.652462527 C192.411392,0.652462527 194.645986,2.89483814 194.645986,5.65565215 L194.645986,9.13706734 C194.645986,11.9002527 192.398164,14.140257 189.654881,14.140257 L13.9340333,14.140257 C11.1775217,14.140257 7.08041305,12.90924 4.76974166,11.3820165 L3.30251352,10.4122615 Z" id="Rectangle-70" stroke-opacity="0.547582654" fill="#FFFFFF"></path>
                    <rect id="Rectangle-71" stroke-opacity="0.69" fill="#D8D8D8" x="175.191711" y="0.652462527" width="1.72662723" height="13.4877944"></rect>
                </g>
                <g id="Mouse" transform="translate(670.000000, 503.000000)" sketch:type="MSShapeGroup">
                    <ellipse id="Oval-12" fill="#B7B7B7" cx="25.3165681" cy="4.21493576" rx="4.31656809" ry="4.21493576"></ellipse>
                    <path d="M25.1126475,39.4054604 C38.9397009,39.4054604 50.1487421,34.194336 50.1487424,21.7027302 C50.1487427,9.21112442 38.9397009,4 25.1126475,4 C11.2855941,4 1.24468404,8.19921878 0.0765525737,21.7027302 C-1.0915789,35.2062416 11.2855941,39.4054604 25.1126475,39.4054604 Z" id="Oval-11" fill="#F1ECEC"></path>
                </g>
            </g>
            <g id="Lamp" sketch:type="MSLayerGroup" transform="translate(1097.000000, 566.000000)">
                <rect id="Rectangle-58" fill="#932734" sketch:type="MSShapeGroup" x="252" y="231" width="71" height="10" rx="5"></rect>
                <path d="M288,228 L288,22.2054196 C288,-0.969211055 150,5.97513699 150,5.97513699" id="Line" stroke="#F2A57E" stroke-width="7" stroke-linecap="square" sketch:type="MSShapeGroup"></path>
                <rect id="Rectangle-59" fill="#1E2F43" sketch:type="MSShapeGroup" transform="translate(142.550123, 9.628313) scale(1, -1) rotate(-7.000000) translate(-142.550123, -9.628313) " x="92.0501234" y="6.12831337" width="101" height="7"></rect>
                <path d="M114.023737,11.1183524 L147.600957,13.4689648 L209.324375,237.5006 L4.94135341,243.808004 L114.023737,11.1183524 Z" id="Rectangle-60" fill-opacity="0.150000006" fill="#F4DD08" sketch:type="MSShapeGroup" transform="translate(107.132864, 127.463178) rotate(-358.000000) translate(-107.132864, -127.463178) "></path>
            </g>
            <g id="Book" sketch:type="MSLayerGroup" transform="translate(1132.000000, 776.000000)">
                <path d="M0,25.4999923 C0,24.1192847 1.12309426,23 2.50279873,23 L68.9972013,23 C70.3794588,23 71.5,24.1191439 71.5,25.4946989 L71.5,30.36868 L71.5,34.8237092 L71.5,35.5181209 L71.5,37.7373601 L2.50279873,37.7373601 C1.12054116,37.7373601 0,36.6175668 0,35.2373678 L0,25.4999923 Z" id="Rectangle-61" fill="#F6A623" sketch:type="MSShapeGroup"></path>
                <path d="M71.5,25.4937831 C71.5,24.1165047 72.6230943,23 74.0027987,23 L140.497201,23 C141.879459,23 143,24.1274379 143,25.4937831 L143,35.5062169 C143,36.8834953 141.890372,38 140.50654,38 L72.3573228,38 L71.5,38 L71.5,25.4937831 Z" id="Rectangle-61" fill="#F6A623" sketch:type="MSShapeGroup"></path>
                <path d="M3.4047619,2.92686062 C3.4047619,2.92686062 24.9568254,0 35.4990728,0 C43.750906,0 56.8899801,3.34558785 56.8899801,3.34558785 C64.1608442,4.96016294 70.7122449,12.2745933 71.4184255,18.9303527 C71.4184255,18.9303527 71.3740722,18.2559378 71.4184255,18.9303527 C71.6019682,21.7212212 71.4184255,27 71.4184255,27 C71.4184255,27 69.5871979,22.5478722 68.9306462,22.5478722 L35.4990726,22.5478722 L3.4047619,22.5478722 L3.4047619,2.92686062 Z" id="Rectangle-63" fill="#FFFFFF" sketch:type="MSShapeGroup"></path>
                <path d="M71.5950088,18.0078125 C71.6041131,17.8849051 71.5950088,18.0078125 71.5950088,18.0078125 C72.3313909,13.0372498 78.0716605,7.39104658 84.4716409,5.53234541 C84.4716409,5.53234541 89.4871888,3.5573119 96.260998,2.99658203 C99.0170452,2.7684389 103.882682,3.03892215 107.443402,2.99658203 C119.852717,2.84902425 139.595238,4.97070312 139.595238,4.97070312 L139.595238,23.1421796 L110.261806,23.1421796 L74.2616844,23.1421796 C72.7929295,23.1421796 71.5950088,27.0078125 71.5950088,27.0078125 C71.5950088,27.0078125 71.381239,20.8936941 71.5950088,18.0078125 Z" id="Rectangle-63" fill="#FFFFFF" sketch:type="MSShapeGroup"></path>
            </g>
            <g id="Plant" sketch:type="MSLayerGroup" transform="translate(1153.000000, 59.000000)">
                <path d="M52.6169253,70.4506589 C56.6867869,72.5926826 60.8579576,72.8356354 69.1768142,58.5859812 C77.4956708,44.3363269 86.8120315,20.9901199 82.7421699,18.8480962 C78.6723083,16.7060725 60.9151142,35.6097538 52.5962576,49.859408 C44.277401,64.1090622 48.5470638,68.3086352 52.6169253,70.4506589 L52.6169253,70.4506589 Z" id="Oval-13" fill="#7ED321" sketch:type="MSShapeGroup"></path>
                <path d="M55.3591912,69.4810397 C59.4290528,67.339016 61.8564315,64.1090622 53.5375749,49.859408 C45.2187183,35.6097538 29.3038082,15.7364533 25.2339466,17.878477 C21.164085,20.0205006 28.6381617,44.3363269 36.9570183,58.5859812 C45.2758749,72.8356354 51.2893296,71.6230634 55.3591912,69.4810397 L55.3591912,69.4810397 Z" id="Oval-13" fill="#7ED321" sketch:type="MSShapeGroup"></path>
                <path d="M50.0332914,74.5514403 C53.0465497,77.7827642 56.7381378,79.2376896 68.6536449,68.1262994 C80.569152,57.0149092 96.1964181,37.544861 93.1831598,34.313537 C90.1699014,31.082213 68.2931815,43.8505426 56.3776744,54.9619328 C44.4621673,66.0733229 47.020033,71.3201163 50.0332914,74.5514403 L50.0332914,74.5514403 Z" id="Oval-13" fill="#7ED321" sketch:type="MSShapeGroup"></path>
                <path d="M55.5473381,69.0496214 C57.8886687,65.3027091 58.3385654,61.3603465 44.5218265,52.7266898 C30.7050876,44.0930331 7.85383105,34.0374725 5.51250043,37.7843848 C3.1711698,41.531297 21.1665408,59.3578989 34.9832797,67.9915556 C48.8000186,76.6252122 53.2060075,72.7965336 55.5473381,69.0496214 L55.5473381,69.0496214 Z" id="Oval-13" fill="#7ED321" sketch:type="MSShapeGroup"></path>
                <path d="M21,69 L80,69 L68,111 L34,111 L21,69 Z" id="Rectangle-66" fill="#7F430E" sketch:type="MSShapeGroup"></path>
                <rect id="Rectangle-78" fill="#B7906E" sketch:type="MSShapeGroup" x="20" y="69" width="61" height="5"></rect>
                <path d="M51,73 C55.418278,73 59,70.8872069 59,50.7288136 C59,30.5704202 55.418278,0 51,0 C46.581722,0 41,30.5704202 41,50.7288136 C41,70.8872069 46.581722,73 51,73 Z" id="Oval-13" fill="#7ED321" sketch:type="MSShapeGroup"></path>
            </g>
            <g id="Hexagon" sketch:type="MSLayerGroup" transform="translate(1224.000000, 180.000000)" fill="#2C3E47">
                <polygon id="Polygon-1" sketch:type="MSShapeGroup" points="115 0 214.592921 57.5 214.592921 172.5 115 230 15.4070786 172.5 15.4070786 57.5 "></polygon>
            </g>
            <g id="Books" sketch:type="MSLayerGroup" transform="translate(1239.000000, 254.000000)">
                <rect id="Rectangle-65" fill="#8B572A" sketch:type="MSShapeGroup" x="0" y="88" width="198" height="10"></rect>
                <rect id="Rectangle-68" fill="#C8BD2A" sketch:type="MSShapeGroup" x="53" y="14" width="19" height="74"></rect>
                <rect id="Rectangle-68" fill="#2776D2" sketch:type="MSShapeGroup" x="72" y="14" width="19" height="74"></rect>
                <rect id="Rectangle-68" fill="#F6A623" sketch:type="MSShapeGroup" x="91" y="0" width="18" height="88"></rect>
                <rect id="Rectangle-68" fill="#A31E2E" sketch:type="MSShapeGroup" x="109" y="14" width="19" height="74"></rect>
                <rect id="Rectangle-68" fill="#497219" sketch:type="MSShapeGroup" x="128" y="14" width="19" height="74"></rect>
                <ellipse id="Oval-18" fill="#FFFFFF" sketch:type="MSShapeGroup" cx="100" cy="70" rx="4" ry="4"></ellipse>
                <ellipse id="Oval-18" fill="#FFFFFF" sketch:type="MSShapeGroup" cx="82" cy="70" rx="4" ry="4"></ellipse>
                <ellipse id="Oval-18" fill="#FFFFFF" sketch:type="MSShapeGroup" cx="63" cy="70" rx="4" ry="4"></ellipse>
                <ellipse id="Oval-18" fill="#FFFFFF" sketch:type="MSShapeGroup" cx="119" cy="70" rx="4" ry="4"></ellipse>
                <ellipse id="Oval-18" fill="#FFFFFF" sketch:type="MSShapeGroup" cx="138" cy="70" rx="4" ry="4"></ellipse>
                <rect id="Rectangle-73" fill="#FFFFFF" sketch:type="MSShapeGroup" x="53" y="26" width="19" height="4" rx="1"></rect>
                <rect id="Rectangle-73" fill="#FFFFFF" sketch:type="MSShapeGroup" x="72" y="26" width="19" height="4" rx="1"></rect>
                <rect id="Rectangle-73" fill="#FFFFFF" sketch:type="MSShapeGroup" x="91" y="17" width="18" height="4" rx="5"></rect>
                <rect id="Rectangle-73" fill="#FFFFFF" sketch:type="MSShapeGroup" x="109" y="26" width="19" height="4" rx="1"></rect>
                <rect id="Rectangle-73" fill="#FFFFFF" sketch:type="MSShapeGroup" x="128" y="26" width="19" height="4" rx="1"></rect>
            </g>
            <g id="Clock" sketch:type="MSLayerGroup" transform="translate(228.000000, 24.000000)">
                <circle id="Oval-23" fill="#000000" sketch:type="MSShapeGroup" cx="97.5" cy="97.5" r="97.5"></circle>
                <ellipse id="Oval-24" fill="#FFFFFF" sketch:type="MSShapeGroup" cx="97.5" cy="99" rx="78.5" ry="79"></ellipse>
                <circle id="Oval-25" fill="#57020C" sketch:type="MSShapeGroup" cx="28" cy="99" r="5"></circle>
                <circle id="Oval-25" fill="#57020C" sketch:type="MSShapeGroup" cx="98" cy="170" r="5"></circle>
                <circle id="Oval-25" fill="#57020C" sketch:type="MSShapeGroup" cx="98" cy="29" r="5"></circle>
                <circle id="Oval-25" fill="#57020C" sketch:type="MSShapeGroup" cx="166" cy="98" r="5"></circle>
                <circle id="Oval-29" fill="#F6A623" sketch:type="MSShapeGroup" cx="97.5" cy="98.5" r="4.5"></circle>
                <path d="M97.5,98.5 L97.5,39.5" id="Line" stroke="#4A4A4A" stroke-width="3" stroke-linecap="square" sketch:type="MSShapeGroup"></path>
                <path d="M98.5,99 L139.5,99" id="Line" stroke="#4A4A4A" stroke-width="2" stroke-linecap="square" sketch:type="MSShapeGroup"></path>
                <path d="M97.5,98.5 L41.5,141.5" id="Line" stroke="#4A4A4A" stroke-linecap="square" sketch:type="MSShapeGroup"></path>
            </g>
        </g>
    </g>
</svg>